<svg xmlns="http://www.w3.org/2000/svg" width="178" height="22" viewBox="0 0 178 22" fill="none"><g clip-path="url(#clip0_5001_801)"><path fill-rule="evenodd" clip-rule="evenodd" d="M35.3357 21.8916H33.4906C19.0552 21.8916 16.6674 9.32851 15.989 7.32059V21.8916H13.2756V1.54101H15.3378C19.3537 1.54101 18.1055 19.2053 32.7037 19.2053C32.758 17.3874 32.7308 7.91754 32.7037 1.54101H35.3357C35.3357 2.38217 35.3357 21.8916 35.3357 21.8916ZM57.6128 21.8916L57.0701 20.752C55.9034 18.3913 53.0272 16.7904 49.4183 16.7904C45.7009 16.7904 43.0961 18.3642 41.9022 20.6434L41.3052 21.8916H38.3747L48.0073 1.37821H50.9378L60.5433 21.8916H57.6128ZM54.4924 15.2709L49.4726 4.52577L44.507 15.081C45.9723 14.4026 47.6003 14.1041 49.364 14.1041C51.2092 14.1041 52.9458 14.484 54.4924 15.2709ZM93.8912 10.6038V21.9188H91.2863V10.6038C91.2863 7.15778 88.6543 4.01022 85.5881 4.01022C82.5491 4.01022 80.1342 6.75077 79.89 10.0611V17.0889H77.2308V10.0611C77.0137 6.75077 74.5988 4.01022 71.5598 4.01022C68.4936 4.01022 65.8616 7.15778 65.8616 10.6038V21.9188H63.2567V10.6038C63.2567 3.71174 68.575 1.35107 71.5869 1.35107C73.7034 1.35107 76.8238 2.43644 78.5604 5.36693C80.3241 2.43644 83.4174 1.35107 85.5339 1.35107C88.5458 1.35107 93.8912 3.71174 93.8912 10.6038ZM115.788 21.8916L115.273 20.752C114.106 18.3913 111.23 16.7904 107.621 16.7904C103.904 16.7904 101.272 18.3642 100.105 20.6434L99.5079 21.8916H96.5775L106.183 1.37821H109.113L118.746 21.8916H115.788ZM112.668 15.2709L107.621 4.52577L102.683 15.081C104.148 14.4026 105.776 14.1041 107.54 14.1041C109.358 14.1041 111.121 14.484 112.668 15.2709ZM140.589 19.6395C138.418 21.1047 135.813 21.8645 133.073 21.8645C125.665 21.8645 119.234 17.7944 119.234 11.6349C119.234 5.31266 125.72 1.37821 133.073 1.37821C135.325 1.37821 137.55 1.92089 139.449 2.92485L138.011 5.17699C136.573 4.22729 135.244 4.03735 133.073 4.03735C127.782 4.03735 122.002 6.6965 122.002 11.6349C122.002 16.7904 128.053 19.2325 133.073 19.2325C135.732 19.2325 137.089 18.7712 139.178 17.3874L140.589 19.6395ZM161.265 21.8645L160.723 20.7249C159.556 18.3642 156.68 16.7633 153.071 16.7633C149.353 16.7633 146.749 18.3642 145.555 20.6163L144.958 21.8645H142.027L151.66 1.37821H154.59L164.196 21.8645H161.265ZM158.145 15.2438L153.125 4.49863L148.159 15.0538C149.625 14.3755 151.253 14.077 153.016 14.077C154.862 14.077 156.598 14.4569 158.145 15.2438Z" fill="#EA7600"></path></g><defs><clipPath id="clip0_5001_801"><rect width="178" height="20.8933" fill="white" transform="translate(0 0.553345)"></rect></clipPath></defs></svg>